<?xml version="1.0" standalone="no"?>
<!DOCTYPE svg PUBLIC "-//W3C//DTD SVG 20010904//EN"
 "http://www.w3.org/TR/2001/REC-SVG-20010904/DTD/svg10.dtd">
<svg version="1.0" xmlns="http://www.w3.org/2000/svg"
 width="350.000000pt" height="350.000000pt" viewBox="0 0 350.000000 350.000000"
 preserveAspectRatio="xMidYMid meet">

<g transform="translate(0.000000,350.000000) scale(0.100000,-0.100000)"
fill="#000000" stroke="none">
<path d="M1450 2726 c-6 -8 -112 -270 -235 -583 l-224 -567 31 -13 c17 -7 35
-13 42 -13 6 0 108 248 226 551 118 303 218 552 221 554 4 3 1070 -264 1116
-280 12 -4 -19 -104 -121 -389 -25 -70 -46 -132 -46 -136 0 -8 62 -51 67 -46
14 13 212 603 208 616 -3 10 -13 21 -21 24 -28 11 -1218 296 -1235 296 -9 0
-22 -6 -29 -14z"/>
<path d="M1574 2352 c-71 -57 -77 -182 -11 -223 41 -25 110 -23 115 4 3 14 -4
17 -36 17 -55 0 -76 26 -69 85 9 82 79 123 127 75 26 -26 30 -25 30 4 0 14
-10 32 -22 40 -30 21 -107 20 -134 -2z"/>
<path d="M1751 2218 c-41 -139 -40 -132 -16 -136 18 -2 24 9 44 83 14 47 27
88 31 90 3 2 14 -44 25 -101 13 -77 23 -107 36 -114 38 -21 45 -12 79 103 40
138 39 131 15 135 -18 2 -24 -9 -44 -83 -14 -49 -28 -80 -31 -73 -4 7 -13 48
-20 91 -14 86 -23 103 -61 112 -25 6 -26 4 -58 -107z"/>
<path d="M2045 2238 c-20 -63 -65 -218 -65 -227 0 -6 11 -11 24 -11 19 0 26 7
33 37 l8 37 56 -3 c51 -2 59 0 78 25 43 55 24 104 -54 133 -65 24 -74 25 -80
9z m89 -54 c21 -21 20 -40 -5 -65 -17 -17 -48 -19 -66 -5 -1 1 3 21 9 44 11
46 34 55 62 26z"/>
<path d="M2232 2085 c-32 -103 -44 -119 -70 -93 -9 9 -13 7 -18 -5 -17 -45 74
-68 97 -24 13 23 71 209 67 212 -2 2 -12 5 -23 9 -19 5 -24 -4 -53 -99z"/>
<path d="M1401 1964 c-21 -26 -27 -67 -15 -99 8 -20 56 -45 87 -45 60 0 102
73 73 128 -18 34 -33 42 -86 42 -30 0 -43 -6 -59 -26z"/>
<path d="M1677 1898 c-26 -20 -38 -63 -26 -96 11 -33 27 -42 125 -73 l71 -22
44 45 c24 24 57 53 72 64 l28 19 -128 38 c-138 41 -161 44 -186 25z"/>
<path d="M2140 1859 c-129 -25 -248 -120 -308 -246 -36 -76 -37 -82 -37 -188
0 -90 4 -120 23 -165 44 -111 142 -208 252 -252 45 -18 76 -22 165 -23 100 0
116 3 169 28 32 15 62 27 67 27 5 0 60 -67 124 -150 64 -82 126 -156 138 -165
45 -32 87 -13 87 40 0 37 -13 58 -139 220 -55 72 -101 136 -101 143 0 7 11 30
25 51 61 92 87 220 65 326 -51 249 -281 403 -530 354z m228 -101 c65 -24 158
-112 190 -179 66 -137 40 -288 -68 -403 -194 -205 -527 -118 -606 158 -34 121
5 254 102 346 110 104 240 131 382 78z"/>
<path d="M1305 1639 c-51 -29 -62 -99 -22 -137 31 -29 99 -30 127 -2 25 25 27
89 3 119 -21 25 -80 36 -108 20z"/>
<path d="M1550 1540 c-27 -27 -27 -90 -1 -114 14 -13 185 -75 209 -76 1 0 2
38 2 85 l0 84 -69 21 c-86 25 -116 25 -141 0z"/>
<path d="M674 1400 c11 -136 63 -240 150 -299 52 -36 779 -365 853 -387 42
-12 81 -15 150 -12 78 4 103 10 157 37 65 32 152 114 188 178 l18 30 -40 7
c-39 6 -41 5 -112 -67 -64 -64 -81 -76 -134 -90 -74 -21 -87 -21 -153 -1 -67
19 -141 86 -169 152 -11 26 -27 78 -35 117 l-14 70 -424 172 c-233 95 -428
172 -433 173 -5 0 -6 -35 -2 -80z"/>
</g>
</svg>
